# 3ds Max Wavefront OBJ Exporter v0.97b - (c)2007 guruware
# File Created: 19.10.2019 10:43:25

mtllib compressed_Pin.mtl

#
# object Line001
#

v  0.1280 0.0691 -0.0000
v  0.0312 0.0691 -0.1814
v  1.8865 0.0397 -3.6565
v  3.8387 0.0397 -0.0000
v  3.3225 12.4857 -6.3463
v  6.7107 12.4857 0.0000
v  1.0240 26.1676 -2.0410
v  2.1136 26.1676 0.0000
v  1.7085 34.9864 -3.3232
v  3.4828 34.9864 0.0000
v  -0.0002 38.0134 -0.1226
v  0.0652 38.0134 0.0000
v  -0.1625 0.0691 -0.1814
v  -2.0179 0.0397 -3.6565
v  -3.4539 12.4857 -6.3463
v  -1.1553 26.1676 -2.0410
v  -1.8399 34.9864 -3.3232
v  -0.1311 38.0134 -0.1226
v  -0.2594 0.0691 0.0000
v  -3.9701 0.0397 0.0000
v  -6.8421 12.4857 0.0000
v  -2.2450 26.1676 -0.0000
v  -3.6142 34.9864 -0.0000
v  -0.1966 38.0134 -0.0000
v  -0.1625 0.0691 0.1814
v  -2.0179 0.0397 3.6566
v  -3.4539 12.4857 6.3463
v  -1.1553 26.1676 2.0410
v  -1.8399 34.9864 3.3232
v  -0.1311 38.0134 0.1226
v  0.0312 0.0691 0.1814
v  1.8865 0.0397 3.6566
v  3.3225 12.4857 6.3463
v  1.0240 26.1676 2.0410
v  1.7085 34.9864 3.3232
v  -0.0002 38.0134 0.1226
# 36 vertices

vn -0.0079 -1.0000 0.0000
vn -0.0040 -1.0000 0.0069
vn -0.0079 -1.0000 -0.0000
vn 0.9744 -0.2249 -0.0000
vn 0.4872 -0.2249 -0.8438
vn 0.9479 0.3185 -0.0000
vn 0.4740 0.3185 -0.8209
vn 0.9479 0.3185 0.0000
vn 0.9882 -0.1534 0.0000
vn 0.4941 -0.1534 -0.8558
vn 0.6630 0.7486 0.0000
vn 0.3315 0.7486 -0.5742
vn 0.0040 -1.0000 0.0069
vn -0.4872 -0.2249 -0.8438
vn -0.4740 0.3185 -0.8209
vn -0.4941 -0.1534 -0.8558
vn -0.3315 0.7486 -0.5742
vn 0.0079 -1.0000 -0.0000
vn -0.9744 -0.2249 0.0000
vn -0.9479 0.3185 0.0000
vn -0.9479 0.3185 -0.0000
vn -0.9882 -0.1534 -0.0000
vn -0.6630 0.7486 -0.0000
vn 0.0040 -1.0000 -0.0069
vn -0.4872 -0.2249 0.8438
vn -0.4740 0.3185 0.8209
vn -0.4941 -0.1534 0.8558
vn -0.3315 0.7486 0.5742
vn -0.0040 -1.0000 -0.0069
vn 0.4872 -0.2249 0.8438
vn 0.4740 0.3185 0.8209
vn 0.4941 -0.1534 0.8558
vn 0.3315 0.7486 0.5742
# 33 vertex normals

vt 0.8985 0.0855 0.0000
vt 0.9007 0.0892 0.0000
vt 0.8592 0.1610 0.0000
vt 0.8156 0.0855 0.0000
vt -0.0302 0.1437 0.0000
vt -0.0302 0.0682 0.0000
vt 0.2477 0.0127 0.0000
vt 0.2477 0.1437 0.0000
vt 0.5532 0.1016 0.0000
vt 0.5532 0.1437 0.0000
vt 0.7501 0.0751 0.0000
vt 0.7501 0.1437 0.0000
vt 0.8452 0.4977 0.0000
vt 0.8156 0.4242 0.0000
vt 0.9176 0.4243 0.0000
vt 0.9187 0.4270 0.0000
vt 0.9050 0.0892 0.0000
vt 0.9464 0.1610 0.0000
vt -0.0302 0.7067 0.0000
vt -0.0302 0.6195 0.0000
vt 0.2477 0.5874 0.0000
vt 0.2477 0.7388 0.0000
vt 0.5532 0.6388 0.0000
vt 0.5532 0.6874 0.0000
vt 0.7501 0.6235 0.0000
vt 0.7501 0.7027 0.0000
vt 0.8177 0.6616 0.0000
vt 0.8177 0.6646 0.0000
vt 0.9071 0.0855 0.0000
vt 0.9900 0.0855 0.0000
vt -0.0302 0.5066 0.0000
vt -0.0302 0.4311 0.0000
vt 0.2477 0.4311 0.0000
vt 0.2477 0.5621 0.0000
vt 0.5532 0.4311 0.0000
vt 0.5532 0.4732 0.0000
vt 0.7501 0.4311 0.0000
vt 0.7501 0.4997 0.0000
vt 0.8156 0.3711 0.0000
vt 0.8587 0.3046 0.0000
vt 0.9173 0.3880 0.0000
vt 0.9157 0.3904 0.0000
vt 0.9050 0.0818 0.0000
vt 0.9464 0.0100 0.0000
vt -0.0302 0.3556 0.0000
vt 0.2477 0.3001 0.0000
vt 0.5532 0.3890 0.0000
vt 0.7501 0.3625 0.0000
vt 0.9205 0.2974 0.0000
vt 0.9196 0.3877 0.0000
vt 0.9007 0.0818 0.0000
vt 0.8592 0.0100 0.0000
vt -0.0302 0.8917 0.0000
vt -0.0302 0.8046 0.0000
vt 0.2477 0.7725 0.0000
vt 0.2477 0.9238 0.0000
vt 0.5532 0.8238 0.0000
vt 0.5532 0.8725 0.0000
vt 0.7501 0.8085 0.0000
vt 0.7501 0.8878 0.0000
vt 0.8177 0.8467 0.0000
vt 0.8177 0.8496 0.0000
vt -0.0302 0.2192 0.0000
vt 0.2477 0.2748 0.0000
vt 0.5532 0.1859 0.0000
vt 0.7501 0.2123 0.0000
vt 0.9045 0.5166 0.0000
vt 0.9209 0.4277 0.0000
# 68 texture coords

g Line001
usemtl 02___Default
s 1
f 1/1/1 2/2/2 3/3/2 4/4/3 
s 4
f 4/5/4 3/6/5 5/7/5 6/8/4 
s 2
f 6/8/6 5/7/7 7/9/7 8/10/8 
s 4
f 8/10/9 7/9/10 9/11/10 10/12/9 
s 2
f 10/13/11 9/14/12 11/15/12 12/16/11 
s 1
f 2/2/2 13/17/13 14/18/13 3/3/2 
s 4
f 3/19/5 14/20/14 15/21/14 5/22/5 
s 2
f 5/22/7 15/21/15 16/23/15 7/24/7 
s 4
f 7/24/10 16/23/16 17/25/16 9/26/10 
s 2
f 9/26/12 17/25/17 18/27/17 11/28/12 
s 1
f 13/17/13 19/29/18 20/30/18 14/18/13 
s 4
f 14/31/14 20/32/19 21/33/19 15/34/14 
s 2
f 15/34/15 21/33/20 22/35/21 16/36/15 
s 4
f 16/36/16 22/35/22 23/37/22 17/38/16 
s 2
f 17/39/17 23/40/23 24/41/23 18/42/17 
s 1
f 19/29/18 25/43/24 26/44/24 20/30/18 
s 4
f 20/32/19 26/45/25 27/46/25 21/33/19 
s 2
f 21/33/20 27/46/26 28/47/26 22/35/21 
s 4
f 22/35/22 28/47/27 29/48/27 23/37/22 
s 2
f 23/40/23 29/49/28 30/50/28 24/41/23 
s 1
f 25/43/24 31/51/29 32/52/29 26/44/24 
s 4
f 26/53/25 32/54/30 33/55/30 27/56/25 
s 2
f 27/56/26 33/55/31 34/57/31 28/58/26 
s 4
f 28/58/27 34/57/32 35/59/32 29/60/27 
s 2
f 29/60/28 35/59/33 36/61/33 30/62/28 
s 1
f 31/51/29 1/1/1 4/4/3 32/52/29 
s 4
f 32/63/30 4/5/4 6/8/4 33/64/30 
s 2
f 33/64/31 6/8/6 8/10/8 34/65/31 
s 4
f 34/65/32 8/10/9 10/12/9 35/66/32 
s 2
f 35/67/33 10/13/11 12/16/11 36/68/33 
# 30 polygons

