# 3ds Max Wavefront OBJ Exporter v0.97b - (c)2007 guruware
# File Created: 16.10.2019 15:29:27

mtllib disk.mtl

#
# object Cylinder001
#

v  0.0000 0.0000 -0.0000
v  0.6235 0.0000 -0.7818
v  0.9010 0.0000 -0.4339
v  1.0000 0.0000 -0.0000
v  -0.2225 0.0000 -0.9749
v  0.2225 0.0000 -0.9749
v  -0.9010 0.0000 -0.4339
v  -0.6235 0.0000 -0.7818
v  -0.9010 0.0000 0.4339
v  -1.0000 0.0000 -0.0000
v  -0.2225 0.0000 0.9749
v  -0.6235 0.0000 0.7818
v  0.6235 0.0000 0.7818
v  0.2225 0.0000 0.9749
v  0.9010 0.0000 0.4339
# 15 vertices

vn 0.0000 -1.0000 -0.0000
vn 1.0000 0.0000 -0.0000
vn 0.0000 1.0000 -0.0000
# 3 vertex normals

vt 0.5000 0.0000 0.0000
vt 0.8929 0.0000 1.0000
vt 0.8214 0.0000 1.0000
vt 0.7500 0.0000 1.0000
vt 0.9438 0.0000 0.8019
vt 0.9643 0.0000 1.0000
vt 0.1786 0.0000 1.0000
vt 0.1071 0.0000 1.0000
vt 0.0357 0.0000 1.0000
vt 0.3214 0.0000 1.0000
vt 0.2500 0.0000 1.0000
vt 0.4643 0.0000 1.0000
vt 0.3929 0.0000 1.0000
vt 0.6071 0.0000 1.0000
vt 0.5357 0.0000 1.0000
vt 0.6786 0.0000 1.0000
vt -0.0357 0.0000 1.0000
# 17 texture coords

g Cylinder001
usemtl wire_000000000
s 1
f 1/1/1 2/2/1 3/3/1 4/4/1 
f 1/1/1 5/5/1 6/6/1 2/2/1 
f 1/1/1 7/7/1 8/8/1 5/9/1 
f 1/1/1 9/10/1 10/11/1 7/7/1 
f 1/1/1 11/12/1 12/13/1 9/10/1 
f 1/1/1 13/14/1 14/15/1 11/12/1 
f 1/1/1 4/4/1 15/16/1 13/14/1 
s 8
f 4/4/2 3/3/2 3/3/2 4/4/2 
f 3/3/2 2/2/2 2/2/2 3/3/2 
f 2/2/2 6/6/2 6/6/2 2/2/2 
f 6/17/2 5/9/2 5/9/2 6/17/2 
f 5/9/2 8/8/2 8/8/2 5/9/2 
f 8/8/2 7/7/2 7/7/2 8/8/2 
f 7/7/2 10/11/2 10/11/2 7/7/2 
f 10/11/2 9/10/2 9/10/2 10/11/2 
f 9/10/2 12/13/2 12/13/2 9/10/2 
f 12/13/2 11/12/2 11/12/2 12/13/2 
f 11/12/2 14/15/2 14/15/2 11/12/2 
f 14/15/2 13/14/2 13/14/2 14/15/2 
f 13/14/2 15/16/2 15/16/2 13/14/2 
f 15/16/2 4/4/2 4/4/2 15/16/2 
f 4/4/2 3/3/2 3/3/2 4/4/2 
f 3/3/2 2/2/2 2/2/2 3/3/2 
f 2/2/2 6/6/2 6/6/2 2/2/2 
f 6/17/2 5/9/2 5/9/2 6/17/2 
f 5/9/2 8/8/2 8/8/2 5/9/2 
f 8/8/2 7/7/2 7/7/2 8/8/2 
f 7/7/2 10/11/2 10/11/2 7/7/2 
f 10/11/2 9/10/2 9/10/2 10/11/2 
f 9/10/2 12/13/2 12/13/2 9/10/2 
f 12/13/2 11/12/2 11/12/2 12/13/2 
f 11/12/2 14/15/2 14/15/2 11/12/2 
f 14/15/2 13/14/2 13/14/2 14/15/2 
f 13/14/2 15/16/2 15/16/2 13/14/2 
f 15/16/2 4/4/2 4/4/2 15/16/2 
f 4/4/2 3/3/2 3/3/2 4/4/2 
f 3/3/2 2/2/2 2/2/2 3/3/2 
f 2/2/2 6/6/2 6/6/2 2/2/2 
f 6/17/2 5/9/2 5/9/2 6/17/2 
f 5/9/2 8/8/2 8/8/2 5/9/2 
f 8/8/2 7/7/2 7/7/2 8/8/2 
f 7/7/2 10/11/2 10/11/2 7/7/2 
f 10/11/2 9/10/2 9/10/2 10/11/2 
f 9/10/2 12/13/2 12/13/2 9/10/2 
f 12/13/2 11/12/2 11/12/2 12/13/2 
f 11/12/2 14/15/2 14/15/2 11/12/2 
f 14/15/2 13/14/2 13/14/2 14/15/2 
f 13/14/2 15/16/2 15/16/2 13/14/2 
f 15/16/2 4/4/2 4/4/2 15/16/2 
f 4/4/2 3/3/2 3/3/2 4/4/2 
f 3/3/2 2/2/2 2/2/2 3/3/2 
f 2/2/2 6/6/2 6/6/2 2/2/2 
f 6/17/2 5/9/2 5/9/2 6/17/2 
f 5/9/2 8/8/2 8/8/2 5/9/2 
f 8/8/2 7/7/2 7/7/2 8/8/2 
f 7/7/2 10/11/2 10/11/2 7/7/2 
f 10/11/2 9/10/2 9/10/2 10/11/2 
f 9/10/2 12/13/2 12/13/2 9/10/2 
f 12/13/2 11/12/2 11/12/2 12/13/2 
f 11/12/2 14/15/2 14/15/2 11/12/2 
f 14/15/2 13/14/2 13/14/2 14/15/2 
f 13/14/2 15/16/2 15/16/2 13/14/2 
f 15/16/2 4/4/2 4/4/2 15/16/2 
f 4/4/2 3/3/2 3/3/2 4/4/2 
f 3/3/2 2/2/2 2/2/2 3/3/2 
f 2/2/2 6/6/2 6/6/2 2/2/2 
f 6/17/2 5/9/2 5/9/2 6/17/2 
f 5/9/2 8/8/2 8/8/2 5/9/2 
f 8/8/2 7/7/2 7/7/2 8/8/2 
f 7/7/2 10/11/2 10/11/2 7/7/2 
f 10/11/2 9/10/2 9/10/2 10/11/2 
f 9/10/2 12/13/2 12/13/2 9/10/2 
f 12/13/2 11/12/2 11/12/2 12/13/2 
f 11/12/2 14/15/2 14/15/2 11/12/2 
f 14/15/2 13/14/2 13/14/2 14/15/2 
f 13/14/2 15/16/2 15/16/2 13/14/2 
f 15/16/2 4/4/2 4/4/2 15/16/2 
f 4/4/2 3/3/2 3/3/2 4/4/2 
f 3/3/2 2/2/2 2/2/2 3/3/2 
f 2/2/2 6/6/2 6/6/2 2/2/2 
f 6/17/2 5/9/2 5/9/2 6/17/2 
f 5/9/2 8/8/2 8/8/2 5/9/2 
f 8/8/2 7/7/2 7/7/2 8/8/2 
f 7/7/2 10/11/2 10/11/2 7/7/2 
f 10/11/2 9/10/2 9/10/2 10/11/2 
f 9/10/2 12/13/2 12/13/2 9/10/2 
f 12/13/2 11/12/2 11/12/2 12/13/2 
f 11/12/2 14/15/2 14/15/2 11/12/2 
f 14/15/2 13/14/2 13/14/2 14/15/2 
f 13/14/2 15/16/2 15/16/2 13/14/2 
f 15/16/2 4/4/2 4/4/2 15/16/2 
f 4/4/2 3/3/2 3/3/2 4/4/2 
f 3/3/2 2/2/2 2/2/2 3/3/2 
f 2/2/2 6/6/2 6/6/2 2/2/2 
f 6/17/2 5/9/2 5/9/2 6/17/2 
f 5/9/2 8/8/2 8/8/2 5/9/2 
f 8/8/2 7/7/2 7/7/2 8/8/2 
f 7/7/2 10/11/2 10/11/2 7/7/2 
f 10/11/2 9/10/2 9/10/2 10/11/2 
f 9/10/2 12/13/2 12/13/2 9/10/2 
f 12/13/2 11/12/2 11/12/2 12/13/2 
f 11/12/2 14/15/2 14/15/2 11/12/2 
f 14/15/2 13/14/2 13/14/2 14/15/2 
f 13/14/2 15/16/2 15/16/2 13/14/2 
f 15/16/2 4/4/2 4/4/2 15/16/2 
f 4/4/2 3/3/2 3/3/2 4/4/2 
f 3/3/2 2/2/2 2/2/2 3/3/2 
f 2/2/2 6/6/2 6/6/2 2/2/2 
f 6/17/2 5/9/2 5/9/2 6/17/2 
f 5/9/2 8/8/2 8/8/2 5/9/2 
f 8/8/2 7/7/2 7/7/2 8/8/2 
f 7/7/2 10/11/2 10/11/2 7/7/2 
f 10/11/2 9/10/2 9/10/2 10/11/2 
f 9/10/2 12/13/2 12/13/2 9/10/2 
f 12/13/2 11/12/2 11/12/2 12/13/2 
f 11/12/2 14/15/2 14/15/2 11/12/2 
f 14/15/2 13/14/2 13/14/2 14/15/2 
f 13/14/2 15/16/2 15/16/2 13/14/2 
f 15/16/2 4/4/2 4/4/2 15/16/2 
s 1
f 1/1/3 15/16/3 4/4/3 3/3/3 
f 1/1/3 3/3/3 2/2/3 6/6/3 
f 1/1/3 6/17/3 5/9/3 8/8/3 
f 1/1/3 8/8/3 7/7/3 10/11/3 
f 1/1/3 10/11/3 9/10/3 12/13/3 
f 1/1/3 12/13/3 11/12/3 14/15/3 
f 1/1/3 14/15/3 13/14/3 15/16/3 
# 126 polygons

